<?xml version="1.0" encoding="utf-8"?>
<!-- Generator: Adobe Illustrator 16.0.0, SVG Export Plug-In . SVG Version: 6.00 Build 0)  -->
<!DOCTYPE svg PUBLIC "-//W3C//DTD SVG 1.1//EN" "http://www.w3.org/Graphics/SVG/1.1/DTD/svg11.dtd">
<svg version="1.1" id="Layer_1" xmlns="http://www.w3.org/2000/svg" xmlns:xlink="http://www.w3.org/1999/xlink" x="0px" y="0px"
	 width="191px" height="52px" viewBox="0 0 191 52" enable-background="new 0 0 191 52" xml:space="preserve">
<g>
	<g>
		<g>
			<path d="M82.816,10.7c-0.221,0-0.433-0.092-0.529-0.249c-0.133-0.212-0.003-0.463,0.289-0.56
				c0.081-0.025,8.046-2.71,10.536-8.214l0.489-1.081l0.6,1.052c0.033,0.057,3.328,5.694,10.372,6.236
				c0.319,0.024,0.55,0.232,0.517,0.465c-0.034,0.232-0.316,0.401-0.638,0.376c-6.001-0.462-9.418-4.115-10.718-5.851
				c-3.038,5.223-10.352,7.681-10.679,7.789C82.978,10.688,82.896,10.7,82.816,10.7z"/>
		</g>
		<g>
			<path d="M89.895,19.168c-0.225,0-0.439-0.095-0.534-0.256c-2.822-4.747-1.876-11.107-1.834-11.375
				c0.036-0.231,0.323-0.397,0.643-0.372c0.319,0.025,0.548,0.235,0.512,0.467c-0.009,0.063-0.952,6.407,1.746,10.945
				c0.128,0.214-0.008,0.463-0.303,0.556C90.05,19.156,89.972,19.168,89.895,19.168z"/>
		</g>
		<g>
			<path d="M90.867,19.068c-1.684,0-2.776-0.079-2.896-0.088c-0.319-0.024-0.551-0.232-0.518-0.464
				c0.033-0.233,0.319-0.402,0.638-0.376c0.081,0.006,8.072,0.578,15.005-1.513c0.299-0.09,0.638,0.013,0.761,0.229
				c0.123,0.215-0.019,0.463-0.316,0.552C98.896,18.81,93.914,19.068,90.867,19.068z"/>
		</g>
		<g>
			<path d="M89.57,9.24c-0.206,0-0.404-0.078-0.51-0.219c-0.154-0.204-0.053-0.46,0.228-0.574c0.171-0.069,4.26-1.674,9.797-0.53
				c0.309,0.064,0.487,0.299,0.399,0.522c-0.088,0.225-0.408,0.355-0.717,0.292c-5.059-1.046-8.88,0.442-8.918,0.457
				C89.761,9.224,89.665,9.24,89.57,9.24z"/>
		</g>
		<g>
			<path d="M94.614,18.92c-0.212,0-0.416-0.084-0.519-0.231c-2.67-3.832-3.033-7.376-1.08-10.537
				c0.046-0.074,0.083-0.134,0.108-0.181c0.119-0.216,0.458-0.322,0.755-0.235c0.298,0.086,0.442,0.333,0.323,0.55
				C94.174,8.34,94.13,8.412,94.076,8.5c-1.802,2.915-1.447,6.214,1.056,9.807c0.145,0.208,0.03,0.463-0.255,0.568
				C94.792,18.906,94.703,18.92,94.614,18.92z"/>
		</g>
		<g>
			<path d="M97.052,18.673c-0.23,0-0.449-0.1-0.54-0.266c-3.12-5.673-1.654-8.881-1.103-10.09c0.054-0.12,0.102-0.221,0.132-0.303
				c0.088-0.226,0.407-0.356,0.717-0.293c0.309,0.063,0.489,0.296,0.403,0.521c-0.036,0.094-0.088,0.208-0.149,0.343
				c-0.564,1.234-1.884,4.124,1.078,9.51c0.119,0.216-0.025,0.462-0.323,0.55C97.196,18.665,97.124,18.673,97.052,18.673z"/>
		</g>
		<g>
			<path d="M102.018,17.626c-0.214,0-0.42-0.086-0.522-0.235c-4.2-6.167,0.387-11.377,1.704-12.673
				c-0.365-0.229-0.734-0.327-1.122-0.295c-1.279,0.104-2.572,1.525-2.963,2.064c-0.149,0.207-0.501,0.287-0.784,0.177
				c-0.284-0.108-0.393-0.364-0.244-0.571c0.174-0.239,1.751-2.34,3.863-2.511c0.902-0.072,1.731,0.206,2.463,0.831
				c0.186,0.159,0.185,0.394-0.003,0.552c-0.262,0.22-6.355,5.469-1.871,12.051c0.143,0.209,0.025,0.463-0.263,0.567
				C102.193,17.612,102.104,17.626,102.018,17.626z"/>
		</g>
	</g>
	<path fill="#00AEA9" d="M47.996,24.304c0,0.439-0.607,1.073-1.821,1.902c-1.213,0.828-2.695,1.623-4.444,2.383
		c-0.226,0.521-0.56,1.47-1,2.842c-0.705,2.152-1.353,3.679-1.943,4.58c-0.592,0.902-1.567,1.82-2.925,2.755
		c-3.925,2.7-8.322,4.051-13.191,4.051c-1.396,0-2.629-0.17-3.698-0.508c-0.591,0.843-0.887,1.577-0.887,2.2
		c0,0.789,0.362,1.514,1.085,2.173c0.075,0.056,0.113,0.119,0.113,0.193c0,0.072-0.063,0.109-0.188,0.109
		c-0.292,0-0.604-0.284-0.94-0.853c-0.336-0.568-0.503-1.102-0.503-1.596c0-0.715,0.321-1.504,0.962-2.366
		c-2.629-0.988-3.944-2.687-3.944-5.094c0-1.547,0.629-3.085,1.888-4.615c1.257-1.529,3.025-2.907,5.302-4.135
		c2.906-1.555,5.781-2.334,8.624-2.334c1.547,0,2.776,0.316,3.689,0.948c0.911,0.632,1.368,1.488,1.368,2.569
		c0,0.576-0.113,1.176-0.339,1.799c1.849-0.897,3.484-1.658,4.906-2.279c0.905-1.438,2.044-2.674,3.416-3.709
		c1.371-1.034,2.567-1.551,3.585-1.551C47.701,23.768,47.996,23.947,47.996,24.304z M35.202,29.453c0-0.961-0.418-1.735-1.254-2.32
		c-0.837-0.586-1.941-0.879-3.313-0.879c-3.384,0-6.659,1.281-9.822,3.845c-3.164,2.563-4.746,5.219-4.746,7.966
		c0,1.803,0.912,3.085,2.736,3.846c0.855-1.025,2.082-2.147,3.679-3.365c-0.831-0.521-1.245-1.144-1.245-1.868
		c0-0.549,0.238-1.018,0.717-1.407c0.478-0.389,1.057-0.583,1.735-0.583c0.843,0,1.265,0.283,1.265,0.851
		c0,0.293-0.158,0.547-0.471,0.763c-0.315,0.214-0.687,0.322-1.114,0.322c-0.617,0-0.925-0.215-0.925-0.645
		c0-0.138,0.063-0.283,0.189-0.44c0.049-0.119,0.075-0.187,0.075-0.206c0-0.055-0.038-0.082-0.113-0.082
		c-0.214,0-0.435,0.165-0.661,0.494c-0.226,0.33-0.339,0.654-0.339,0.975c0,0.605,0.384,1.146,1.151,1.62
		c2.528-1.94,6.522-4.206,11.983-6.796C35.045,30.735,35.202,30.04,35.202,29.453z M39.882,29.398
		c-1.472,0.678-3.083,1.446-4.831,2.308c-0.831,1.94-2.287,3.645-4.368,5.108c-2.083,1.465-4.079,2.197-5.991,2.197
		c-0.58,0-1.215-0.108-1.906-0.33c-1.423,1.072-2.63,2.198-3.624,3.38c1.031,0.338,2.201,0.507,3.509,0.507
		c2.365,0,4.655-0.487,6.869-1.462c2.215-0.975,4.114-2.328,5.7-4.059c0.742-0.805,1.327-1.554,1.754-2.244
		c0.427-0.692,1.12-1.995,2.076-3.908C39.296,30.42,39.567,29.92,39.882,29.398z M34.542,31.926l-1.246,0.618
		c-4.743,2.382-8.165,4.362-10.266,5.946c0.529,0.202,1.095,0.303,1.698,0.303c1.762,0,3.604-0.674,5.53-2.02
		C32.183,35.428,33.61,33.813,34.542,31.926z M47.638,24.331c0-0.22-0.176-0.33-0.528-0.33c-0.843,0-1.784,0.424-2.821,1.27
		c-1.039,0.848-1.84,1.838-2.407,2.974c1.661-0.741,3.036-1.482,4.123-2.226C47.093,25.278,47.638,24.715,47.638,24.331z"/>
	<path fill="#00AEA9" d="M50.802,35.975c0,0.027-0.113,0.146-0.34,0.356l-0.812,0.74c-2.607,2.341-4.842,3.511-6.706,3.511
		c-0.881,0-1.621-0.23-2.219-0.694c-0.598-0.461-0.896-1.04-0.896-1.736c0-1.648,1.578-3.099,4.736-4.353
		c1.661-0.659,3.013-0.99,4.057-0.99c0.453,0,0.84,0.099,1.16,0.296c0.321,0.196,0.481,0.438,0.481,0.722
		c0,0.657-0.591,1.22-1.774,1.681c-1.182,0.463-3.157,0.896-5.925,1.299c-0.855,0.942-1.283,1.729-1.283,2.362
		c0,0.788,0.585,1.181,1.757,1.181c1.99,0,4.426-1.412,7.311-4.236c0.151-0.147,0.277-0.22,0.377-0.22
		C50.777,35.901,50.802,35.929,50.802,35.975z M49.207,33.427c0-0.293-0.22-0.439-0.66-0.439c-0.667,0-1.544,0.336-2.633,1.01
		c-1.088,0.673-2.154,1.545-3.199,2.616c1.813-0.338,3.347-0.817,4.604-1.436C48.578,34.56,49.207,33.976,49.207,33.427z"/>
	<path fill="#00AEA9" d="M64.069,35.471c0,0.213-0.92,1.196-2.759,2.952c-1.486,1.439-2.658,2.159-3.514,2.159
		c-0.58,0-1.052-0.175-1.417-0.523c-0.365-0.351-0.547-0.787-0.547-1.315c0-0.545,0.201-1.138,0.604-1.776
		c-1.258,1.418-2.221,2.375-2.887,2.871c-0.667,0.496-1.315,0.744-1.944,0.744c-0.667,0-1.227-0.23-1.679-0.691
		c-0.453-0.46-0.68-1.04-0.68-1.739c0-1.944,1.704-3.665,5.114-5.164c1.497-0.669,2.705-1.002,3.624-1.002
		c0.779,0,1.169,0.303,1.169,0.91c0,0.174-0.051,0.4-0.151,0.685l0.963-1.474c0.377,0.071,0.71,0.105,1,0.105
		c0.34,0,0.78-0.034,1.321-0.105l-3.34,4.451c-1.157,1.559-1.735,2.587-1.735,3.083c0,0.477,0.245,0.715,0.736,0.715
		c0.504,0,1.311-0.465,2.419-1.394c1.108-0.927,2.236-2.071,3.382-3.43c0.075-0.103,0.145-0.152,0.208-0.152
		C64.031,35.38,64.069,35.41,64.069,35.471z M58.869,32.956c0-0.495-0.282-0.744-0.849-0.744c-1.158,0-2.677,0.912-4.558,2.734
		c-1.88,1.824-2.821,3.296-2.821,4.42c0,0.659,0.365,0.989,1.095,0.989c0.868,0,2.371-1.16,4.51-3.48
		C57.995,34.972,58.869,33.666,58.869,32.956z"/>
	<path fill="#00AEA9" d="M74.55,35.858c0,0.086-0.381,0.486-1.144,1.195c-0.966,0.918-1.875,1.375-2.726,1.375
		c-0.966,0-1.449-0.477-1.449-1.436c0-0.305,0.076-0.691,0.229-1.16c-0.799,0.6-1.45,1.192-1.951,1.779
		c-0.502,0.589-1.367,1.789-2.597,3.596c-0.673-0.044-1.066-0.065-1.18-0.065c-0.051,0-0.437,0.021-1.161,0.065l3.121-4.345
		c1.561-2.179,2.341-3.529,2.341-4.053c0-0.305-0.146-0.457-0.438-0.457c-0.712,0-2.002,1.174-3.872,3.521
		c-0.114,0.151-0.216,0.229-0.304,0.229c-0.051-0.01-0.076-0.044-0.076-0.099c0.012-0.056,0.038-0.099,0.076-0.13l0.343-0.41
		c1.957-2.238,3.284-3.356,3.983-3.356c1.017,0,1.524,0.563,1.524,1.684c0,0.839-0.52,1.949-1.56,3.332
		c0.659-0.655,1.288-1.188,1.883-1.601c0.483-0.971,1.081-1.78,1.799-2.434c0.716-0.654,1.36-0.981,1.932-0.981
		c0.393,0,0.589,0.148,0.589,0.441c0,0.523-0.882,1.269-2.645,2.237c-0.279,0.153-0.699,0.377-1.257,0.671l-0.228,0.162
		c-0.178,0.502-0.266,0.917-0.266,1.243c0,0.915,0.4,1.371,1.202,1.371c0.991,0,2.071-0.705,3.241-2.113
		c0.254-0.242,0.413-0.361,0.476-0.361C74.512,35.76,74.55,35.792,74.55,35.858z"/>
	<path fill="#00AEA9" d="M85.002,34.578c0,0.155-0.953,1.155-2.859,3.002c-2.083,2.002-3.854,3.002-5.314,3.002
		c-0.946,0-1.758-0.318-2.434-0.953c-0.676-0.637-1.015-1.396-1.015-2.275c0-1,0.459-2.035,1.378-3.106
		c0.919-1.069,2.155-1.992,3.709-2.765c1.31-0.668,2.377-1,3.202-1c1,0,1.5,0.524,1.5,1.57c0,0.822-0.314,1.642-0.942,2.463
		c-0.628,0.82-1.253,1.23-1.875,1.23c-0.607,0-0.912-0.268-0.912-0.803c0-0.63,0.622-1.213,1.864-1.749
		c0.959-0.416,1.439-0.963,1.439-1.642c0-0.534-0.331-0.802-0.993-0.802c-1.121,0-2.499,0.981-4.134,2.943
		c-1.635,1.963-2.452,3.61-2.452,4.942c0,1.119,0.595,1.678,1.785,1.678c1.866,0,4.395-1.854,7.587-5.558
		c0.175-0.189,0.304-0.286,0.385-0.286C84.975,34.483,85.002,34.519,85.002,34.578z"/>
	<path fill="#00AEA9" d="M98.078,34.035c0,0.092-0.071,0.193-0.211,0.309l-0.906,1.007c-2.639,2.973-4.605,4.458-5.897,4.458
		c-0.674,0-1.226-0.195-1.654-0.589c-0.429-0.393-0.642-0.882-0.642-1.475c0-0.796,0.532-1.837,1.599-3.121
		c1.669-1.99,2.504-3.171,2.504-3.547c0-0.443-0.288-0.665-0.863-0.665c-0.841,0-1.992,0.67-3.45,2.011
		c-1.403,1.286-3.331,3.72-5.786,7.3c-0.421-0.067-0.779-0.102-1.073-0.102c-0.309,0-0.723,0.034-1.241,0.102l3.093-4.536
		c0.42-0.647,1.065-1.604,1.936-2.864c0.462-0.615,1.886-2.569,4.271-5.867l3.198-4.399c0.42,0.068,0.779,0.102,1.073,0.102
		c0.561,0,1.093-0.057,1.599-0.17c-1.459,1.898-3.632,4.741-6.522,8.528c-0.083,0.112-1.171,1.579-3.261,4.399
		c2.637-3.172,4.719-4.758,6.249-4.758c0.603,0,1.118,0.21,1.546,0.63c0.427,0.421,0.641,0.934,0.641,1.536
		c0,0.784-0.617,1.915-1.852,3.394c-1.375,1.648-2.062,2.684-2.062,3.103c0,0.49,0.302,0.735,0.906,0.735
		c1.095,0,2.908-1.437,5.436-4.305l0.652-0.735l0.381-0.374c0.069-0.116,0.153-0.172,0.253-0.172
		C98.05,33.968,98.078,33.991,98.078,34.035z"/>
	<g>
		<path fill="#00AEA9" d="M149.084,20.481c0,0.476-0.089,0.997-0.265,1.564c-0.179,0.567-0.35,0.85-0.515,0.85
			c-0.129,0-0.191-0.045-0.191-0.137c0-0.027,0.012-0.068,0.038-0.124c0.339-0.639,0.51-1.331,0.51-2.071
			c0-1.153-0.48-2.078-1.443-2.778c-0.963-0.699-2.233-1.049-3.811-1.049c-2.13,0-4.324,0.499-6.583,1.496
			c1.925,1.099,2.887,2.344,2.887,3.735c0,1.173-0.66,2.194-1.981,3.063c-1.319,0.87-2.865,1.304-4.633,1.304
			c-0.691,0-1.437-0.099-2.23-0.297c-0.794-0.197-1.193-0.385-1.193-0.56c0.026-0.056,0.077-0.083,0.154-0.083
			c0.064,0,0.167,0.028,0.31,0.083c0.792,0.325,1.594,0.487,2.401,0.487c1.462,0,2.714-0.449,3.758-1.346
			c1.045-0.898,1.568-1.969,1.568-3.214c0-1.071-0.54-2.027-1.618-2.869c-2.783,1.481-5.428,4.091-7.93,7.827
			c-1.514,2.261-2.9,3.892-4.156,4.889c-1.259,0.999-3.021,1.9-5.294,2.707c-2.681,0.934-5.075,1.399-7.18,1.399
			c-1.72,0-3.149-0.281-4.291-0.844c-1.143-0.563-1.714-1.266-1.714-2.108c0-0.467,0.196-0.869,0.587-1.208
			c0.393-0.339,0.857-0.509,1.396-0.509c0.783,0,1.175,0.312,1.175,0.934c0,0.312-0.132,0.577-0.395,0.797
			c-0.264,0.221-0.587,0.329-0.974,0.329c-0.667,0-0.987-0.246-0.961-0.741c0.012-0.201-0.013-0.302-0.077-0.302
			c-0.205,0-0.308,0.242-0.308,0.727c0,0.761,0.522,1.394,1.568,1.896c1.046,0.504,2.364,0.755,3.956,0.755
			c2.81,0,5.356-0.74,7.64-2.224c1.002-0.649,1.855-1.315,2.562-1.992c0.77-0.732,2.45-2.509,5.043-5.329
			c1.296-1.392,2.821-2.787,4.58-4.188c1.758-1.401,3.253-2.404,4.484-3.008c-2.002-1.217-4.941-1.826-8.814-1.826
			c-5.416,0-10.125,1.396-14.128,4.188c-3.286,2.289-4.927,4.446-4.927,6.468c0,1.026,0.46,1.841,1.385,2.445
			c0.925,0.604,2.176,0.906,3.754,0.906c2.579,0,5.244-0.883,7.997-2.649c2.752-1.768,4.128-3.485,4.128-5.151
			c0-1.327-0.956-1.991-2.868-1.991s-3.96,0.761-6.15,2.285c-2.187,1.523-3.28,2.952-3.28,4.288c0,0.33,0.154,0.613,0.465,0.851
			c0.309,0.238,0.67,0.357,1.082,0.357c0.22,0,0.329,0.04,0.329,0.122c0,0.073-0.121,0.11-0.367,0.11
			c-0.617,0-1.139-0.199-1.563-0.597c-0.426-0.398-0.638-0.885-0.638-1.462c0-1.427,1.097-2.817,3.29-4.171
			c2.195-1.354,4.447-2.031,6.757-2.031c2.206,0,3.311,0.728,3.311,2.184c0,1.777-1.404,3.572-4.216,5.384
			c-2.809,1.813-5.581,2.719-8.315,2.719c-1.783,0-3.211-0.382-4.281-1.146c-1.072-0.766-1.607-1.789-1.607-3.069
			c0-2.592,2.049-4.956,6.15-7.095c4.1-2.138,8.631-3.207,13.596-3.207c3.773,0,6.943,0.6,9.51,1.799
			c2.349-1.044,4.618-1.565,6.814-1.565c1.719,0,3.102,0.366,4.147,1.097S149.084,19.283,149.084,20.481z"/>
		<path fill="#00AEA9" d="M147.482,28.049c0,0.147-0.389,0.496-1.169,1.043c-1.163,0.816-2.232,1.225-3.209,1.225
			c-0.411,0-0.774-0.057-1.09-0.169c-1.745,1.74-3.382,2.61-4.917,2.61c-0.791,0-1.469-0.23-2.028-0.69
			c-0.563-0.461-0.843-1.012-0.843-1.653c0-1.434,1.332-2.815,3.999-4.146c1.874-0.939,3.419-1.409,4.633-1.409
			c1.137,0,1.704,0.428,1.704,1.283c0,1.071-0.8,2.358-2.396,3.867c0.263,0.11,0.56,0.167,0.889,0.167
			c0.596,0,1.29-0.195,2.085-0.584c0.793-0.39,1.44-0.858,1.944-1.405c0.146-0.131,0.251-0.194,0.318-0.194
			C147.456,27.993,147.482,28.011,147.482,28.049z M144.266,26.172c0-0.754-0.482-1.131-1.446-1.131
			c-1.201,0-2.666,0.809-4.396,2.428c-1.729,1.62-2.593,2.981-2.593,4.089c0,0.643,0.436,0.964,1.306,0.964
			c1.427,0,2.984-0.829,4.674-2.484c-0.383-0.298-0.575-0.604-0.575-0.921c0-0.455,0.26-0.927,0.772-1.41
			c0.516-0.482,1.017-0.725,1.506-0.725c0.21,0,0.356,0.093,0.436,0.278C144.159,26.934,144.266,26.572,144.266,26.172z"/>
		<path fill="#00AEA9" d="M153.872,26.974c-0.013,0.032-0.077,0.117-0.194,0.254l-0.84,1.177c-2.449,2.761-4.316,4.142-5.605,4.142
			c-0.613,0-1.123-0.178-1.533-0.531c-0.411-0.354-0.616-0.795-0.616-1.323c0-0.612,0.449-1.542,1.347-2.788l3.044-4.2
			c0.402,0.074,0.721,0.111,0.955,0.111c0.351,0,0.846-0.037,1.483-0.111l-4.43,5.91c-0.638,0.856-0.955,1.516-0.955,1.981
			c0,0.476,0.306,0.713,0.919,0.713c1.158,0,3.196-1.917,6.114-5.271c0.064-0.106,0.13,0.082,0.194,0.082
			C153.834,27.12,153.872,26.911,153.872,26.974z M153.59,21.814c0,0.333-0.191,0.646-0.576,0.937
			c-0.384,0.292-0.804,0.437-1.258,0.437c-0.586,0-0.878-0.215-0.878-0.644c0-0.315,0.202-0.619,0.604-0.909
			c0.405-0.29,0.827-0.437,1.269-0.437C153.311,21.198,153.59,21.404,153.59,21.814z"/>
		<path fill="#00AEA9" d="M169.613,27.059c0,0.237-0.958,1.334-2.874,3.29c-1.572,1.607-2.809,2.409-3.707,2.409
			c-0.594,0-1.093-0.197-1.496-0.592c-0.404-0.396-0.605-0.882-0.605-1.458c0-0.508,0.122-0.979,0.367-1.414
			c0.244-0.435,0.88-1.296,1.911-2.583c1.068-1.355,1.604-2.218,1.604-2.591c0-0.463-0.283-0.695-0.852-0.695
			c-1.928,0-4.898,3.06-8.91,9.181c-0.647-0.045-1.037-0.068-1.168-0.068c-0.463,0-0.9,0.023-1.309,0.068l3.089-4.183
			c1.757-2.395,2.634-3.891,2.634-4.49c0-0.339-0.165-0.508-0.495-0.508c-0.675,0-2.005,1.217-3.988,3.651
			c-0.118,0.146-0.212,0.225-0.279,0.236c-0.065,0-0.105-0.033-0.117-0.102c0.012-0.058,0.04-0.103,0.079-0.135l0.376-0.425
			c2.023-2.32,3.385-3.481,4.086-3.481c0.45,0,0.834,0.176,1.151,0.526c0.315,0.35,0.476,0.768,0.476,1.254
			c0,0.722-0.495,1.727-1.485,3.015c1.557-1.841,2.755-3.101,3.595-3.778c0.836-0.677,1.613-1.017,2.325-1.017
			c0.581,0,1.069,0.204,1.466,0.61c0.396,0.407,0.594,0.91,0.594,1.507c0,0.757-0.606,1.915-1.821,3.473
			c-1.241,1.593-1.861,2.608-1.861,3.049c0,0.462,0.271,0.694,0.813,0.694c1.177,0,3.205-1.792,6.087-5.378
			c0.067-0.113,0.134-0.169,0.199-0.169C169.576,26.957,169.613,26.99,169.613,27.059z"/>
		<path fill="#00AEA9" d="M176.33,23.168l-0.158,0.209h-2.594l-4.416,5.316c-0.542,0.643-0.813,1.154-0.813,1.536
			c0,0.419,0.311,0.628,0.932,0.628c1.203,0,3.231-1.478,6.089-4.431c0.092-0.093,0.171-0.14,0.237-0.14
			c0.078,0,0.119,0.029,0.119,0.084c-0.015,0.027-0.08,0.103-0.198,0.223l-0.854,0.824c-2.485,2.434-4.354,3.648-5.611,3.648
			c-0.62,0-1.138-0.158-1.555-0.474c-0.417-0.317-0.625-0.713-0.625-1.188c0-0.558,0.35-1.256,1.051-2.093l3.326-3.936h-2.021
			l0.198-0.209h1.98l2.317-2.707c0.396,0.075,0.772,0.111,1.128,0.111c0.368,0,0.753-0.037,1.149-0.111l-2.277,2.707H176.33z"/>
	</g>
	<path fill="#00AEA9" d="M119.609,42.111c0,0,48.932-11.983,56.721,0.281c0,0-4.223-16.988-45-4.158L119.609,42.111z"/>
	<g>
		<path d="M61.843,45.495h5.24v0.722h-5.24V45.495z M63.943,45.937h1.042V50.9h-1.042V45.937z"/>
		<path d="M68.127,45.495h1.042V50.9h-1.042V45.495z M68.775,47.878h4.122v0.721h-4.122V47.878z M72.346,45.495h1.042V50.9h-1.042
			V45.495z"/>
		<path d="M75.247,45.495h1.042V50.9h-1.042V45.495z M75.753,45.495h4.265v0.722h-4.265V45.495z M75.753,47.854h3.703v0.723h-3.703
			V47.854z M75.753,50.179h4.265V50.9h-4.265V50.179z"/>
	</g>
	<g>
		<path d="M84.348,45.564h1.107v5.84h-1.107V45.564z M84.831,48.157h2.693c0.209,0,0.396-0.038,0.559-0.112
			c0.163-0.075,0.289-0.181,0.377-0.319c0.089-0.138,0.132-0.297,0.132-0.476c0-0.18-0.043-0.337-0.132-0.477
			c-0.089-0.138-0.213-0.244-0.375-0.318c-0.161-0.074-0.348-0.112-0.562-0.112h-2.693v-0.778h2.649
			c0.457,0,0.857,0.069,1.203,0.209c0.346,0.138,0.613,0.335,0.804,0.592c0.189,0.255,0.285,0.551,0.285,0.885
			c0,0.333-0.096,0.63-0.288,0.885c-0.192,0.256-0.461,0.453-0.806,0.593c-0.345,0.138-0.745,0.208-1.197,0.208h-2.649V48.157z
			 M86.981,48.756l1.102-0.186l2.02,2.834h-1.313L86.981,48.756z"/>
		<path d="M91.617,45.567h1.107v5.837h-1.107V45.567z M92.154,45.567h4.533v0.779h-4.533V45.567z M92.154,48.117h3.937v0.778h-3.937
			V48.117z M92.154,50.625h4.533v0.779h-4.533V50.625z"/>
		<path d="M100.434,45.567h0.944l2.91,5.837h-1.195l-2.187-4.708l-2.188,4.708h-1.193L100.434,45.567z M98.865,49.346h4.153v0.778
			h-4.153V49.346z"/>
		<path d="M105.505,45.567h1.107v5.837h-1.107V45.567z M106.058,50.625h4.517v0.779h-4.517V50.625z"/>
	</g>
	<g>
		<path d="M113.163,45.401h1.164v5.403h-1.164V45.401z M113.728,45.401h4.766v0.721h-4.766V45.401z M113.728,47.761h4.139v0.721
			h-4.139V47.761z M113.728,50.084h4.766v0.721h-4.766V50.084z"/>
		<path d="M122.067,50.862c0,0-0.179-0.025-0.537-0.074c-0.356-0.051-0.691-0.125-1-0.224c-0.313-0.1-0.602-0.224-0.872-0.371
			l0.726-0.58c0.315,0.178,0.664,0.313,1.043,0.401c0.38,0.089,0.794,0.133,1.239,0.133c0.601,0,1.067-0.071,1.398-0.217
			c0.332-0.145,0.497-0.351,0.497-0.615v-0.005c0-0.187-0.076-0.337-0.226-0.448c-0.15-0.109-0.345-0.191-0.584-0.244
			c-0.236-0.054-0.544-0.103-0.921-0.146c-0.011-0.003-0.023-0.004-0.037-0.004c-0.013,0-0.024-0.002-0.036-0.005l-0.086-0.01
			c-0.555-0.063-1.007-0.133-1.355-0.211c-0.348-0.079-0.646-0.22-0.892-0.428c-0.249-0.206-0.373-0.501-0.373-0.883v-0.003
			c0-0.334,0.115-0.621,0.347-0.857c0.229-0.236,0.564-0.417,1.006-0.54c0.442-0.125,0.973-0.186,1.594-0.186
			c0.295,0,0.588,0.02,0.876,0.062c0.286,0.043,0.57,0.104,0.85,0.188c0.279,0.083,0.555,0.188,0.825,0.314l-0.663,0.602
			c-0.315-0.15-0.63-0.265-0.944-0.339c-0.314-0.076-0.628-0.114-0.943-0.114c-0.568,0-1.009,0.073-1.321,0.221
			c-0.314,0.147-0.471,0.356-0.471,0.627v0.004c0,0.185,0.08,0.332,0.241,0.438c0.162,0.106,0.364,0.185,0.605,0.234
			c0.241,0.053,0.576,0.104,1.006,0.16c0.017,0.003,0.031,0.004,0.044,0.005c0.014,0.001,0.026,0.003,0.043,0.006
			c0.019,0.002,0.039,0.005,0.063,0.007c0.023,0.003,0.044,0.005,0.062,0.008c0.503,0.066,0.923,0.146,1.26,0.238
			c0.336,0.092,0.617,0.24,0.846,0.444c0.225,0.204,0.339,0.483,0.339,0.839v0.006c0,0.33-0.12,0.612-0.359,0.846
			c-0.24,0.234-0.587,0.413-1.042,0.536s-1.003,0.185-1.646,0.185C122.268,50.862,122.067,50.862,122.067,50.862z"/>
		<path d="M126.251,45.401h5.855v0.721h-5.855V45.401z M128.596,45.843h1.166v4.962h-1.166V45.843z"/>
		<path d="M135.02,45.401h0.991l3.059,5.403h-1.255l-2.301-4.359l-2.3,4.359h-1.255L135.02,45.401z M133.369,48.898h4.365v0.721
			h-4.365V48.898z"/>
		<path d="M138.979,45.401h5.855v0.721h-5.855V45.401z M141.325,45.843h1.163v4.962h-1.163V45.843z"/>
		<path d="M146.001,45.401h1.164v5.403h-1.164V45.401z M146.565,45.401h4.766v0.721h-4.766V45.401z M146.565,47.761h4.139v0.721
			h-4.139V47.761z M146.565,50.084h4.766v0.721h-4.766V50.084z"/>
	</g>
</g>
</svg>
