<?xml version="1.0" encoding="utf-8"?>
<!-- Generator: Adobe Illustrator 16.0.0, SVG Export Plug-In . SVG Version: 6.00 Build 0)  -->
<!DOCTYPE svg PUBLIC "-//W3C//DTD SVG 1.1//EN" "http://www.w3.org/Graphics/SVG/1.1/DTD/svg11.dtd">
<svg version="1.1" id="Layer_1" xmlns="http://www.w3.org/2000/svg" xmlns:xlink="http://www.w3.org/1999/xlink" x="0px" y="0px"
	 width="251px" height="102px" viewBox="0 0 251 102" enable-background="new 0 0 251 102" xml:space="preserve">
<g>
	<g>
		<g>
			<path d="M106.13,24.214c-0.338,0-0.66-0.162-0.807-0.437c-0.203-0.371-0.005-0.81,0.441-0.979
				c0.122-0.044,12.286-4.745,16.088-14.381l0.748-1.893l0.916,1.841c0.051,0.1,5.083,9.969,15.838,10.917
				c0.489,0.043,0.841,0.407,0.79,0.814c-0.053,0.406-0.482,0.703-0.974,0.659c-9.164-0.81-14.382-7.204-16.368-10.244
				c-4.639,9.143-15.807,13.448-16.307,13.636C106.377,24.193,106.253,24.214,106.13,24.214z"/>
		</g>
		<g>
			<path d="M116.941,39.039c-0.344,0-0.672-0.167-0.815-0.449c-4.309-8.31-2.865-19.445-2.8-19.914
				c0.056-0.405,0.493-0.695,0.981-0.651c0.487,0.044,0.837,0.411,0.781,0.818c-0.015,0.111-1.454,11.216,2.667,19.161
				c0.195,0.375-0.013,0.812-0.462,0.974C117.178,39.019,117.059,39.039,116.941,39.039z"/>
		</g>
		<g>
			<path d="M118.424,38.865c-2.572,0-4.238-0.138-4.422-0.155c-0.487-0.042-0.841-0.406-0.791-0.813
				c0.05-0.408,0.487-0.704,0.974-0.658c0.123,0.01,12.326,1.011,22.913-2.648c0.456-0.157,0.975,0.023,1.162,0.401
				c0.188,0.377-0.028,0.811-0.482,0.967C130.685,38.412,123.078,38.865,118.424,38.865z"/>
		</g>
		<g>
			<path d="M116.445,21.658c-0.314,0-0.618-0.136-0.78-0.383c-0.236-0.357-0.081-0.806,0.349-1.004
				c0.261-0.122,6.504-2.931,14.959-0.929c0.471,0.113,0.745,0.523,0.61,0.915c-0.135,0.393-0.623,0.622-1.095,0.512
				c-7.725-1.832-13.56,0.774-13.619,0.799C116.736,21.63,116.589,21.658,116.445,21.658z"/>
		</g>
		<g>
			<path d="M124.147,38.605c-0.323,0-0.635-0.147-0.792-0.404c-4.079-6.709-4.632-12.914-1.648-18.448
				c0.07-0.129,0.127-0.234,0.165-0.316c0.182-0.379,0.699-0.563,1.154-0.412s0.675,0.583,0.494,0.962
				c-0.044,0.094-0.112,0.22-0.194,0.375c-2.752,5.103-2.209,10.878,1.613,17.168c0.221,0.365,0.046,0.81-0.39,0.995
				C124.419,38.581,124.282,38.605,124.147,38.605z"/>
		</g>
		<g>
			<path d="M127.869,38.173c-0.353,0-0.687-0.174-0.824-0.465c-4.765-9.933-2.526-15.548-1.683-17.664
				c0.082-0.21,0.155-0.386,0.202-0.531c0.134-0.396,0.621-0.625,1.095-0.514c0.472,0.11,0.748,0.519,0.617,0.911
				c-0.057,0.165-0.135,0.364-0.229,0.6c-0.861,2.162-2.876,7.22,1.646,16.649c0.183,0.378-0.037,0.809-0.493,0.963
				C128.091,38.158,127.98,38.173,127.869,38.173z"/>
		</g>
		<g>
			<path d="M135.452,36.34c-0.326,0-0.641-0.151-0.797-0.412c-6.415-10.797,0.59-19.918,2.602-22.186
				c-0.559-0.402-1.12-0.572-1.713-0.518c-1.954,0.182-3.928,2.669-4.525,3.613c-0.228,0.362-0.766,0.502-1.196,0.311
				c-0.436-0.19-0.601-0.638-0.373-1c0.264-0.419,2.673-4.097,5.9-4.396c1.377-0.125,2.643,0.362,3.76,1.455
				c0.283,0.278,0.282,0.689-0.005,0.966c-0.4,0.386-9.705,9.575-2.858,21.098c0.219,0.367,0.039,0.811-0.399,0.993
				C135.721,36.316,135.584,36.34,135.452,36.34z"/>
		</g>
	</g>
	<path fill="#00AEA9" d="M52.959,48.03c0,0.769-0.927,1.879-2.781,3.33c-1.853,1.449-4.116,2.84-6.787,4.172
		c-0.346,0.913-0.854,2.572-1.527,4.974c-1.075,3.77-2.065,6.442-2.967,8.021c-0.904,1.58-2.394,3.186-4.467,4.822
		c-5.995,4.728-12.708,7.092-20.144,7.092c-2.132,0-4.015-0.298-5.647-0.889c-0.903,1.476-1.355,2.76-1.355,3.851
		c0,1.382,0.553,2.65,1.657,3.805c0.115,0.099,0.173,0.209,0.173,0.339c0,0.126-0.096,0.191-0.288,0.191
		c-0.445,0-0.923-0.498-1.436-1.493c-0.513-0.994-0.769-1.927-0.769-2.793c0-1.252,0.49-2.632,1.469-4.142
		c-4.015-1.731-6.023-4.705-6.023-8.919c0-2.709,0.96-5.4,2.882-8.08c1.92-2.677,4.621-5.09,8.097-7.237
		c4.438-2.724,8.828-4.087,13.169-4.087c2.362,0,4.24,0.553,5.634,1.658c1.391,1.108,2.088,2.606,2.088,4.498
		c0,1.009-0.173,2.058-0.518,3.148c2.823-1.569,5.321-2.903,7.492-3.989c1.382-2.517,3.123-4.682,5.216-6.494
		c2.093-1.811,3.92-2.717,5.475-2.717C52.508,47.091,52.959,47.405,52.959,48.03z M33.422,57.046c0-1.683-0.639-3.039-1.915-4.063
		c-1.279-1.026-2.965-1.539-5.059-1.539c-5.167,0-10.168,2.244-14.999,6.732c-4.833,4.488-7.247,9.137-7.247,13.946
		c0,3.155,1.393,5.4,4.179,6.732c1.305-1.795,3.178-3.76,5.618-5.893c-1.269-0.912-1.902-2.001-1.902-3.271
		c0-0.961,0.365-1.781,1.096-2.463c0.729-0.68,1.613-1.021,2.65-1.021c1.288,0,1.931,0.495,1.931,1.488
		c0,0.513-0.241,0.957-0.719,1.335c-0.482,0.375-1.049,0.564-1.701,0.564c-0.941,0-1.412-0.375-1.412-1.127
		c0-0.242,0.096-0.496,0.288-0.772c0.076-0.208,0.115-0.326,0.115-0.36c0-0.096-0.058-0.144-0.173-0.144
		c-0.326,0-0.664,0.288-1.009,0.866c-0.345,0.576-0.518,1.145-0.518,1.705c0,1.061,0.586,2.007,1.758,2.837
		c3.861-3.397,9.96-7.363,18.299-11.899C33.182,59.29,33.422,58.073,33.422,57.046z M40.568,56.949
		c-2.248,1.188-4.707,2.532-7.377,4.04c-1.268,3.397-3.492,6.381-6.67,8.943c-3.181,2.565-6.23,3.846-9.149,3.846
		c-0.886,0-1.855-0.188-2.91-0.576c-2.173,1.877-4.017,3.848-5.534,5.917c1.575,0.591,3.361,0.888,5.359,0.888
		c3.612,0,7.108-0.854,10.489-2.562c3.382-1.705,6.283-4.074,8.705-7.104c1.132-1.408,2.025-2.72,2.679-3.93
		c0.652-1.211,1.711-3.492,3.17-6.841C39.674,58.737,40.087,57.862,40.568,56.949z M32.414,61.375l-1.902,1.082
		c-7.243,4.169-12.468,7.636-15.677,10.409c0.808,0.354,1.672,0.529,2.593,0.529c2.691,0,5.504-1.178,8.444-3.535
		C28.811,67.505,30.991,64.676,32.414,61.375z M52.412,48.078c0-0.386-0.27-0.578-0.807-0.578c-1.288,0-2.724,0.743-4.307,2.223
		c-1.586,1.485-2.811,3.219-3.676,5.206c2.537-1.296,4.636-2.594,6.296-3.896C51.58,49.736,52.412,48.75,52.412,48.078z"/>
	<path fill="#00AEA9" d="M57.244,68.463c0,0.047-0.173,0.257-0.519,0.623l-1.239,1.295c-3.982,4.101-7.394,6.148-10.24,6.148
		c-1.347,0-2.477-0.405-3.39-1.217c-0.912-0.806-1.369-1.82-1.369-3.039c0-2.886,2.41-5.424,7.232-7.62
		c2.537-1.154,4.601-1.733,6.196-1.733c0.692,0,1.282,0.173,1.771,0.518c0.491,0.344,0.735,0.767,0.735,1.264
		c0,1.151-0.903,2.136-2.709,2.942c-1.804,0.81-4.821,1.569-9.048,2.274c-1.306,1.649-1.959,3.026-1.959,4.136
		c0,1.379,0.894,2.066,2.683,2.066c3.04,0,6.759-2.473,11.164-7.417c0.231-0.259,0.422-0.384,0.576-0.384
		C57.206,68.333,57.244,68.383,57.244,68.463z M54.808,64.002c0-0.513-0.336-0.77-1.007-0.77c-1.019,0-2.358,0.589-4.021,1.768
		c-1.662,1.178-3.29,2.706-4.884,4.58c2.768-0.591,5.111-1.43,7.031-2.513C53.848,65.984,54.808,64.962,54.808,64.002z"/>
	<path fill="#00AEA9" d="M77.503,67.58c0,0.373-1.404,2.095-4.213,5.169c-2.269,2.52-4.058,3.78-5.365,3.78
		c-0.886,0-1.606-0.306-2.164-0.918c-0.558-0.613-0.835-1.377-0.835-2.302c0-0.955,0.306-1.992,0.92-3.11
		c-1.921,2.483-3.391,4.158-4.408,5.027c-1.019,0.868-2.007,1.303-2.968,1.303c-1.019,0-1.873-0.405-2.564-1.211
		c-0.691-0.806-1.038-1.821-1.038-3.045c0-3.404,2.602-6.417,7.809-9.041c2.286-1.172,4.13-1.754,5.534-1.754
		c1.19,0,1.786,0.529,1.786,1.594c0,0.305-0.078,0.7-0.231,1.199l1.471-2.58c0.576,0.124,1.084,0.185,1.526,0.185
		c0.52,0,1.192-0.061,2.018-0.185l-5.102,7.792c-1.766,2.728-2.65,4.527-2.65,5.396c0,0.834,0.375,1.252,1.124,1.252
		c0.771,0,2.002-0.813,3.695-2.44c1.693-1.621,3.415-3.625,5.165-6.004c0.115-0.178,0.221-0.267,0.316-0.267
		C77.445,67.421,77.503,67.475,77.503,67.58z M69.563,63.177c0-0.866-0.431-1.301-1.296-1.301c-1.769,0-4.088,1.596-6.959,4.786
		c-2.872,3.194-4.308,5.771-4.308,7.738c0,1.154,0.557,1.731,1.671,1.731c1.325,0,3.62-2.031,6.886-6.093
		C68.228,66.707,69.563,64.421,69.563,63.177z"/>
	<path fill="#00AEA9" d="M93.507,68.259c0,0.151-0.582,0.853-1.745,2.093c-1.476,1.607-2.864,2.408-4.164,2.408
		c-1.475,0-2.213-0.835-2.213-2.514c0-0.535,0.117-1.211,0.349-2.031c-1.221,1.05-2.214,2.088-2.979,3.114
		c-0.767,1.031-2.087,3.133-3.966,6.296c-1.028-0.078-1.628-0.115-1.803-0.115c-0.078,0-0.667,0.037-1.773,0.115l4.766-7.607
		c2.384-3.812,3.575-6.177,3.575-7.094c0-0.534-0.223-0.8-0.669-0.8c-1.087,0-3.057,2.055-5.912,6.163
		c-0.174,0.266-0.33,0.4-0.465,0.4c-0.078-0.016-0.116-0.077-0.116-0.171c0.017-0.1,0.058-0.175,0.116-0.229l0.523-0.717
		c2.987-3.918,5.015-5.876,6.083-5.876c1.552,0,2.328,0.985,2.328,2.948c0,1.467-0.795,3.411-2.382,5.831
		c1.006-1.146,1.966-2.077,2.876-2.802c0.737-1.698,1.65-3.116,2.747-4.259c1.094-1.146,2.078-1.719,2.95-1.719
		c0.6,0,0.901,0.26,0.901,0.772c0,0.915-1.347,2.221-4.039,3.917c-0.426,0.269-1.067,0.659-1.919,1.174l-0.348,0.285
		c-0.271,0.878-0.406,1.605-0.406,2.175c0,1.604,0.611,2.4,1.834,2.4c1.513,0,3.163-1.232,4.949-3.698
		c0.388-0.425,0.629-0.633,0.727-0.633C93.45,68.087,93.507,68.144,93.507,68.259z"/>
	<path fill="#00AEA9" d="M109.469,66.019c0,0.271-1.456,2.022-4.366,5.255c-3.18,3.504-5.885,5.256-8.115,5.256
		c-1.444,0-2.686-0.559-3.717-1.669c-1.032-1.114-1.549-2.443-1.549-3.983c0-1.751,0.701-3.563,2.104-5.439
		c1.404-1.871,3.29-3.486,5.664-4.84c2-1.169,3.63-1.751,4.889-1.751c1.526,0,2.29,0.919,2.29,2.751c0,1.438-0.48,2.872-1.439,4.311
		c-0.959,1.437-1.914,2.154-2.863,2.154c-0.926,0-1.393-0.469-1.393-1.406c0-1.102,0.949-2.123,2.847-3.062
		c1.464-0.729,2.197-1.685,2.197-2.875c0-0.933-0.504-1.401-1.516-1.401c-1.712,0-3.816,1.717-6.313,5.151
		c-2.496,3.436-3.743,6.32-3.743,8.653c0,1.958,0.908,2.938,2.725,2.938c2.849,0,6.711-3.246,11.586-9.729
		c0.267-0.331,0.464-0.502,0.587-0.502C109.428,65.853,109.469,65.913,109.469,66.019z"/>
	<path fill="#00AEA9" d="M129.437,65.066c0,0.161-0.109,0.339-0.321,0.541l-1.384,1.763c-4.031,5.205-7.034,7.804-9.005,7.804
		c-1.03,0-1.872-0.34-2.526-1.03c-0.655-0.688-0.98-1.543-0.98-2.582c0-1.393,0.813-3.216,2.441-5.463
		c2.55-3.484,3.824-5.552,3.824-6.21c0-0.775-0.439-1.164-1.318-1.164c-1.284,0-3.042,1.173-5.268,3.521
		c-2.143,2.252-5.086,6.511-8.835,12.779c-0.644-0.117-1.189-0.179-1.639-0.179c-0.471,0-1.104,0.062-1.896,0.179l4.724-7.94
		c0.642-1.135,1.626-2.809,2.956-5.016c0.706-1.078,2.88-4.499,6.521-10.272l4.883-7.702c0.642,0.12,1.189,0.178,1.639,0.178
		c0.856,0,1.669-0.099,2.441-0.299c-2.228,3.324-5.547,8.301-9.959,14.931c-0.128,0.196-1.789,2.764-4.98,7.702
		c4.026-5.554,7.207-8.329,9.542-8.329c0.921,0,1.708,0.366,2.361,1.102c0.652,0.736,0.979,1.635,0.979,2.689
		c0,1.373-0.942,3.352-2.827,5.941c-2.1,2.886-3.149,4.697-3.149,5.431c0,0.858,0.461,1.288,1.384,1.288
		c1.673,0,4.44-2.516,8.301-7.536l0.996-1.287l0.581-0.654c0.105-0.204,0.235-0.302,0.388-0.302
		C129.393,64.949,129.437,64.99,129.437,65.066z"/>
	<g>
		<path fill="#00AEA9" d="M207.325,41.339c0,0.833-0.135,1.746-0.404,2.738c-0.272,0.994-0.533,1.488-0.785,1.488
			c-0.197,0-0.292-0.08-0.292-0.24c0-0.046,0.018-0.118,0.057-0.216c0.518-1.118,0.779-2.33,0.779-3.625
			c0-2.019-0.734-3.639-2.203-4.864c-1.472-1.224-3.412-1.836-5.82-1.836c-3.252,0-6.602,0.873-10.053,2.62
			c2.939,1.923,4.408,4.103,4.408,6.54c0,2.054-1.008,3.841-3.024,5.363c-2.015,1.522-4.377,2.283-7.075,2.283
			c-1.057,0-2.193-0.173-3.406-0.52c-1.212-0.346-1.822-0.675-1.822-0.98c0.04-0.098,0.118-0.147,0.235-0.147
			c0.1,0,0.255,0.049,0.473,0.147c1.21,0.568,2.434,0.853,3.667,0.853c2.233,0,4.146-0.787,5.739-2.356
			c1.596-1.572,2.396-3.447,2.396-5.628c0-1.875-0.825-3.548-2.472-5.022c-4.25,2.593-8.29,7.162-12.11,13.703
			c-2.311,3.958-4.428,6.813-6.347,8.559c-1.922,1.749-4.613,3.327-8.083,4.738c-4.094,1.635-7.75,2.45-10.964,2.45
			c-2.627,0-4.81-0.493-6.553-1.477c-1.746-0.986-2.616-2.216-2.616-3.692c0-0.816,0.299-1.521,0.895-2.113
			c0.601-0.595,1.311-0.893,2.132-0.893c1.196,0,1.794,0.547,1.794,1.636c0,0.545-0.201,1.01-0.602,1.396
			c-0.404,0.385-0.897,0.574-1.486,0.574c-1.019,0-1.51-0.43-1.469-1.297c0.018-0.353-0.021-0.528-0.117-0.528
			c-0.313,0-0.471,0.425-0.471,1.273c0,1.331,0.798,2.438,2.396,3.32c1.596,0.88,3.61,1.32,6.041,1.32
			c4.291,0,8.18-1.296,11.666-3.893c1.529-1.138,2.833-2.303,3.911-3.488c1.175-1.283,3.742-4.392,7.701-9.329
			c1.98-2.437,4.309-4.88,6.993-7.333c2.686-2.453,4.968-4.208,6.849-5.267c-3.058-2.13-7.545-3.197-13.46-3.197
			c-8.271,0-15.462,2.444-21.575,7.333c-5.017,4.007-7.521,7.784-7.521,11.323c0,1.798,0.702,3.223,2.113,4.282
			c1.414,1.057,3.323,1.586,5.733,1.586c3.938,0,8.007-1.546,12.212-4.638c4.201-3.095,6.304-6.102,6.304-9.018
			c0-2.324-1.461-3.487-4.381-3.487s-6.046,1.333-9.391,4.001c-3.34,2.666-5.01,5.168-5.01,7.507c0,0.578,0.235,1.073,0.71,1.489
			c0.471,0.417,1.023,0.626,1.651,0.626c0.336,0,0.502,0.069,0.502,0.213c0,0.129-0.184,0.194-0.56,0.194
			c-0.943,0-1.739-0.35-2.388-1.046c-0.65-0.697-0.974-1.548-0.974-2.559c0-2.498,1.674-4.932,5.023-7.304
			c3.354-2.371,6.792-3.555,10.318-3.555c3.369,0,5.056,1.274,5.056,3.823c0,3.11-2.145,6.254-6.438,9.426
			c-4.289,3.173-8.522,4.761-12.699,4.761c-2.721,0-4.902-0.669-6.537-2.007c-1.639-1.339-2.455-3.133-2.455-5.374
			c0-4.538,3.129-8.676,9.393-12.42c6.261-3.743,13.18-5.614,20.762-5.614c5.761,0,10.602,1.05,14.521,3.15
			c3.585-1.827,7.053-2.74,10.406-2.74c2.625,0,4.736,0.641,6.333,1.921C206.53,37.551,207.325,39.24,207.325,41.339z"/>
		<path fill="#00AEA9" d="M204.88,54.586c0,0.26-0.593,0.869-1.784,1.827c-1.777,1.43-3.41,2.144-4.901,2.144
			c-0.629,0-1.182-0.101-1.664-0.295c-2.665,3.046-5.165,4.569-7.51,4.569c-1.207,0-2.241-0.403-3.096-1.209
			c-0.861-0.807-1.288-1.771-1.288-2.895c0-2.509,2.034-4.929,6.107-7.257c2.861-1.645,5.222-2.466,7.074-2.466
			c1.735,0,2.602,0.749,2.602,2.246c0,1.875-1.221,4.128-3.658,6.77c0.402,0.193,0.855,0.293,1.358,0.293
			c0.909,0,1.97-0.343,3.184-1.022c1.211-0.683,2.199-1.503,2.97-2.459c0.222-0.229,0.384-0.342,0.485-0.342
			C204.84,54.489,204.88,54.52,204.88,54.586z M199.969,51.301c0-1.32-0.738-1.98-2.21-1.98c-1.835,0-4.071,1.417-6.713,4.25
			c-2.641,2.837-3.959,5.22-3.959,7.158c0,1.125,0.664,1.688,1.992,1.688c2.179,0,4.559-1.451,7.139-4.349
			c-0.585-0.521-0.879-1.059-0.879-1.613c0-0.798,0.396-1.622,1.179-2.468c0.787-0.845,1.554-1.269,2.3-1.269
			c0.321,0,0.545,0.163,0.666,0.487C199.805,52.635,199.969,52.001,199.969,51.301z"/>
		<path fill="#00AEA9" d="M214.637,52.705c-0.019,0.056-0.118,0.205-0.297,0.446l-1.281,2.06c-3.742,4.833-6.592,7.25-8.562,7.25
			c-0.935,0-1.715-0.31-2.34-0.931c-0.628-0.618-0.941-1.391-0.941-2.315c0-1.073,0.686-2.699,2.057-4.881l4.648-7.352
			c0.614,0.129,1.101,0.194,1.458,0.194c0.536,0,1.291-0.064,2.266-0.194l-6.765,10.345c-0.975,1.5-1.459,2.654-1.459,3.47
			c0,0.833,0.467,1.249,1.405,1.249c1.768,0,4.879-3.357,9.336-9.229c0.098-0.187,0.197,0.144,0.297,0.144
			C214.579,52.961,214.637,52.596,214.637,52.705z M214.206,43.672c0,0.583-0.292,1.131-0.88,1.64
			c-0.585,0.512-1.228,0.764-1.921,0.764c-0.895,0-1.341-0.375-1.341-1.126c0-0.551,0.309-1.083,0.922-1.591
			c0.62-0.508,1.264-0.764,1.938-0.764C213.779,42.594,214.206,42.953,214.206,43.672z"/>
		<path fill="#00AEA9" d="M238.675,52.853c0,0.416-1.464,2.336-4.389,5.762c-2.401,2.813-4.289,4.217-5.66,4.217
			c-0.909,0-1.67-0.346-2.286-1.036c-0.617-0.694-0.924-1.544-0.924-2.552c0-0.89,0.188-1.713,0.561-2.476
			c0.372-0.762,1.345-2.269,2.92-4.522c1.63-2.374,2.447-3.884,2.447-4.537c0-0.811-0.432-1.217-1.301-1.217
			c-2.944,0-7.48,5.357-13.606,16.072c-0.988-0.078-1.584-0.118-1.783-0.118c-0.707,0-1.375,0.04-1.998,0.118l4.717-7.322
			c2.683-4.193,4.022-6.811,4.022-7.86c0-0.593-0.253-0.89-0.757-0.89c-1.029,0-3.062,2.13-6.091,6.392
			c-0.179,0.258-0.323,0.394-0.426,0.414c-0.101,0-0.161-0.058-0.178-0.178c0.017-0.102,0.06-0.181,0.119-0.236l0.574-0.744
			c3.091-4.062,5.169-6.094,6.24-6.094c0.687,0,1.273,0.307,1.759,0.92c0.48,0.613,0.726,1.344,0.726,2.196
			c0,1.263-0.757,3.023-2.27,5.279c2.377-3.224,4.207-5.429,5.489-6.614c1.278-1.186,2.465-1.781,3.551-1.781
			c0.889,0,1.635,0.357,2.239,1.068c0.606,0.712,0.906,1.592,0.906,2.639c0,1.325-0.927,3.352-2.782,6.08
			c-1.894,2.788-2.841,4.567-2.841,5.339c0,0.808,0.412,1.214,1.242,1.214c1.796,0,4.893-3.137,9.293-9.415
			c0.104-0.199,0.205-0.295,0.305-0.295C238.618,52.676,238.675,52.733,238.675,52.853z"/>
		<path fill="#00AEA9" d="M248.932,46.042l-0.242,0.366h-3.96l-6.743,9.308c-0.828,1.123-1.241,2.021-1.241,2.688
			c0,0.733,0.474,1.1,1.424,1.1c1.836,0,4.934-2.587,9.298-7.758c0.139-0.163,0.261-0.244,0.361-0.244
			c0.119,0,0.182,0.05,0.182,0.146c-0.022,0.049-0.122,0.18-0.303,0.391l-1.304,1.443c-3.795,4.26-6.649,6.388-8.567,6.388
			c-0.948,0-1.738-0.277-2.375-0.829c-0.636-0.556-0.954-1.248-0.954-2.081c0-0.975,0.533-2.197,1.604-3.662l5.08-6.89h-3.086
			l0.302-0.366h3.024l3.539-4.74c0.605,0.131,1.18,0.195,1.723,0.195c0.563,0,1.149-0.064,1.756-0.195l-3.479,4.74H248.932z"/>
	</g>
	<path fill="#00AEA9" d="M162.316,79.207c0,0,74.721-20.979,86.615,0.491c0,0-6.448-29.74-68.717-7.28L162.316,79.207z"/>
	<g>
		<path d="M74.104,85.13h8.002v1.264h-8.002V85.13z M77.311,85.902h1.59v8.691h-1.59V85.902z"/>
		<path d="M83.699,85.13h1.591v9.464h-1.591V85.13z M84.69,89.302h6.293v1.262H84.69V89.302z M90.142,85.13h1.591v9.464h-1.591
			V85.13z"/>
		<path d="M94.572,85.13h1.592v9.464h-1.592V85.13z M95.346,85.13h6.512v1.264h-6.512V85.13z M95.346,89.261h5.655v1.265h-5.655
			V89.261z M95.346,93.329h6.512v1.265h-6.512V93.329z"/>
	</g>
	<g>
		<path d="M108.471,85.251h1.69v10.224h-1.69V85.251z M109.208,89.791h4.112c0.318,0,0.604-0.067,0.853-0.197
			c0.248-0.132,0.44-0.315,0.576-0.56c0.135-0.239,0.202-0.519,0.202-0.832c0-0.314-0.067-0.589-0.202-0.834
			c-0.136-0.241-0.326-0.429-0.572-0.557c-0.245-0.13-0.531-0.197-0.857-0.197h-4.112v-1.363h4.044c0.697,0,1.31,0.122,1.837,0.365
			c0.527,0.241,0.936,0.588,1.227,1.038c0.289,0.445,0.435,0.963,0.435,1.548c0,0.584-0.147,1.104-0.439,1.55
			c-0.293,0.448-0.704,0.792-1.231,1.037c-0.527,0.241-1.138,0.363-1.829,0.363h-4.044V89.791z M112.491,90.838l1.683-0.324
			l3.083,4.961h-2.006L112.491,90.838z"/>
		<path d="M119.57,85.258h1.691v10.217h-1.691V85.258z M120.391,85.258h6.922v1.363h-6.922V85.258z M120.391,89.721h6.012v1.362
			h-6.012V89.721z M120.391,94.11h6.922v1.364h-6.922V94.11z"/>
		<path d="M133.033,85.258h1.442l4.444,10.217h-1.825l-3.34-8.242l-3.343,8.242h-1.821L133.033,85.258z M130.639,91.87h6.342v1.364
			h-6.342V91.87z"/>
		<path d="M140.777,85.258h1.691v10.217h-1.691V85.258z M141.621,94.11h6.896v1.364h-6.896V94.11z"/>
	</g>
	<g>
		<path d="M152.473,84.965h1.777v9.46h-1.777V84.965z M153.333,84.965h7.278v1.264h-7.278V84.965z M153.333,89.097h6.321v1.262
			h-6.321V89.097z M153.333,93.163h7.278v1.262h-7.278V93.163z"/>
		<path d="M166.07,94.525c0,0-0.273-0.043-0.82-0.129c-0.544-0.089-1.057-0.219-1.527-0.393c-0.478-0.173-0.919-0.391-1.332-0.648
			l1.107-1.016c0.483,0.312,1.015,0.547,1.594,0.702c0.579,0.156,1.212,0.233,1.892,0.233c0.917,0,1.629-0.126,2.136-0.381
			c0.507-0.252,0.759-0.614,0.759-1.076V91.81c0-0.325-0.116-0.591-0.344-0.784c-0.23-0.191-0.526-0.337-0.892-0.428
			c-0.361-0.094-0.831-0.18-1.406-0.257c-0.017-0.006-0.037-0.007-0.058-0.007c-0.019,0-0.036-0.003-0.055-0.009l-0.131-0.018
			c-0.848-0.107-1.537-0.232-2.07-0.368c-0.53-0.139-0.987-0.386-1.361-0.749c-0.38-0.36-0.569-0.877-0.569-1.546V87.64
			c0-0.584,0.176-1.087,0.528-1.502c0.352-0.412,0.862-0.729,1.536-0.945c0.676-0.219,1.485-0.324,2.435-0.324
			c0.449,0,0.898,0.035,1.337,0.106c0.437,0.077,0.871,0.184,1.297,0.331c0.428,0.146,0.849,0.328,1.261,0.551l-1.013,1.053
			c-0.48-0.262-0.961-0.463-1.441-0.593c-0.48-0.133-0.959-0.199-1.44-0.199c-0.869,0-1.54,0.127-2.019,0.386
			c-0.48,0.258-0.718,0.624-0.718,1.097v0.008c0,0.324,0.121,0.581,0.368,0.769c0.247,0.186,0.556,0.322,0.925,0.41
			c0.367,0.093,0.88,0.182,1.535,0.279c0.025,0.005,0.048,0.007,0.067,0.009c0.021,0.001,0.041,0.005,0.065,0.011
			c0.028,0.003,0.06,0.009,0.096,0.012c0.036,0.005,0.067,0.009,0.094,0.014c0.768,0.116,1.409,0.255,1.924,0.416
			c0.513,0.162,0.943,0.423,1.292,0.779c0.343,0.356,0.518,0.846,0.518,1.469v0.01c0,0.578-0.184,1.072-0.55,1.48
			c-0.366,0.41-0.896,0.724-1.591,0.938c-0.695,0.215-1.532,0.322-2.515,0.322C166.374,94.525,166.07,94.525,166.07,94.525z"/>
		<path d="M172.459,84.965h8.941v1.264h-8.941V84.965z M176.038,85.737h1.781v8.688h-1.781V85.737z"/>
		<path d="M185.849,84.965h1.513l4.672,9.46h-1.917l-3.513-7.631l-3.513,7.631h-1.917L185.849,84.965z M183.328,91.088h6.665v1.262
			h-6.665V91.088z"/>
		<path d="M191.896,84.965h8.941v1.264h-8.941V84.965z M195.478,85.737h1.776v8.688h-1.776V85.737z"/>
		<path d="M202.617,84.965h1.778v9.46h-1.778V84.965z M203.479,84.965h7.278v1.264h-7.278V84.965z M203.479,89.097h6.321v1.262
			h-6.321V89.097z M203.479,93.163h7.278v1.262h-7.278V93.163z"/>
	</g>
</g>
</svg>
